<svg xmlns="http://www.w3.org/2000/svg" viewBox="0 0 943.92 902.15"><defs><style>.cls-1{fill:none;stroke:#231f20;stroke-miterlimit:10;stroke-width:8px;}</style></defs><g id="Layer_2" data-name="Layer 2"><g id="Layer_3" data-name="Layer 3"><path class="cls-1" d="M447.69,11.27c13.35-9.69,35.19-9.69,48.54,0l15.55,11.3,48.54,35.27L923.22,321.5c13.35,9.7,20.1,30.47,15,46.16l-163.1,502c-5.1,15.69-22.77,28.53-39.27,28.53H208.07c-16.5,0-34.17-12.84-39.27-28.53L5.7,367.66C.6,352,7.35,331.2,20.7,321.5Z"/><path class="cls-1" d="M536.05,40.2,182.72,296.91c-13.35,9.7-20.1,30.47-15,46.17L284,700.92c5.1,15.7,22.77,28.54,39.27,28.54H653.7"/><path class="cls-1" d="M150.87,814.45H596.08c16.5,0,34.17-12.84,39.27-28.53L765.08,386.66"/><path class="cls-1" d="M922.94,414.67,557.4,149.09c-13.35-9.69-35.19-9.69-48.54,0l-327,237.57"/><line class="cls-1" x1="64.32" y1="289.81" x2="235.39" y2="814.45"/><path class="cls-1" d="M473.48,174.8,807.23,417.29c13.35,9.69,20.1,30.47,15,46.16L681,898.15"/></g></g></svg>