<?xml version="1.0" standalone="no"?>
<!DOCTYPE svg PUBLIC "-//W3C//DTD SVG 20010904//EN"
 "http://www.w3.org/TR/2001/REC-SVG-20010904/DTD/svg10.dtd">
<svg version="1.0" xmlns="http://www.w3.org/2000/svg"
 width="300.000000pt" height="287.000000pt" viewBox="0 0 300.000000 287.000000"
 preserveAspectRatio="xMidYMid meet">
<metadata>
Created by potrace 1.10, written by Peter Selinger 2001-2011
</metadata>
<g transform="translate(0.000000,287.000000) scale(0.100000,-0.100000)"
fill="#000000" stroke="none">
<path d="M1430 2687 c-56 -34 -243 -160 -542 -367 -92 -63 -252 -172 -355
-243 -276 -187 -283 -193 -321 -267 -52 -104 -84 -201 -78 -235 4 -16 19 -64
35 -105 16 -41 44 -113 61 -160 18 -47 38 -98 45 -115 7 -16 41 -104 75 -195
35 -91 71 -183 80 -205 10 -22 51 -127 91 -233 41 -106 82 -201 91 -211 9 -11
20 -34 23 -53 4 -18 21 -63 38 -98 l32 -65 285 1 c267 1 781 16 1040 30 109 6
135 11 170 33 8 6 41 22 73 37 31 14 57 30 57 35 0 5 7 9 15 9 9 0 35 19 58
43 35 35 47 59 71 137 16 52 49 154 73 227 23 73 43 141 43 151 0 10 4 22 9
28 8 8 32 82 126 390 14 44 25 86 25 92 0 7 4 20 10 30 17 31 49 151 45 171
-2 11 -8 28 -14 39 -6 11 -8 22 -4 25 8 9 -56 186 -79 219 -18 26 -172 144
-438 338 -63 46 -146 107 -185 135 -38 28 -113 82 -165 120 -52 38 -117 85
-145 106 -27 20 -74 49 -102 65 -29 15 -53 31 -53 35 0 10 -91 75 -115 83 -13
4 -39 -6 -75 -27z m132 -43 c35 -25 64 -47 66 -49 2 -1 -23 -20 -55 -42 -103
-69 -332 -226 -493 -338 -25 -17 -90 -62 -145 -100 -55 -38 -136 -93 -180
-123 -171 -117 -241 -167 -277 -194 l-37 -29 19 -42 c18 -42 134 -332 225
-562 46 -116 81 -201 199 -487 31 -75 56 -139 56 -142 0 -3 -35 -6 -78 -6
l-78 0 -106 263 c-59 144 -153 375 -209 512 -55 138 -128 315 -160 394 -32 80
-58 145 -56 146 1 1 38 26 82 56 44 31 132 91 195 134 63 44 169 116 235 161
111 77 277 190 593 406 70 48 130 88 134 88 5 0 36 -21 70 -46z m340 -245
c123 -89 279 -203 348 -254 69 -50 154 -112 190 -138 36 -26 107 -78 159 -115
l93 -69 34 -88 c19 -49 40 -95 46 -102 32 -39 -14 -14 -128 69 -71 52 -281
204 -467 338 -186 135 -374 271 -418 303 -44 31 -85 57 -93 57 -7 0 -24 -8
-37 -18 -13 -11 -141 -98 -284 -194 -143 -96 -372 -250 -510 -343 -137 -92
-260 -177 -272 -188 -13 -11 -25 -19 -27 -16 -5 5 -46 112 -46 119 0 5 79 60
598 417 191 131 227 156 432 298 74 52 140 92 147 90 6 -2 112 -77 235 -166z
m-199 -61 c18 -12 37 -26 42 -31 15 -12 225 -165 265 -192 19 -13 76 -53 125
-90 273 -199 618 -446 633 -452 22 -9 25 1 -142 -533 -52 -168 -114 -366 -137
-440 -82 -267 -67 -239 -155 -297 -43 -29 -86 -59 -96 -67 -16 -14 -18 -14
-18 4 0 11 6 37 14 57 8 21 21 63 30 93 8 30 48 159 87 285 39 127 74 244 79
260 14 51 86 293 129 435 l41 135 -22 15 c-12 8 -44 31 -70 50 -26 19 -98 72
-160 117 -62 46 -170 125 -239 175 -70 51 -180 131 -244 178 -64 47 -164 119
-220 161 l-104 76 57 41 c31 22 61 41 65 41 5 1 23 -9 40 -21z m-156 -91 c11
-19 166 -135 538 -407 176 -128 328 -240 337 -249 16 -15 15 -20 -12 -81 -17
-36 -33 -82 -36 -103 -4 -20 -11 -40 -15 -43 -5 -3 -9 -16 -9 -29 0 -13 -4
-25 -8 -27 -4 -1 -36 -91 -71 -198 -35 -107 -68 -204 -72 -215 -5 -11 -29 -83
-54 -160 -25 -77 -50 -151 -55 -165 l-10 -25 -461 -3 c-253 -1 -468 -6 -477
-10 -29 -13 -162 -7 -176 9 -7 8 -23 46 -36 84 -21 64 -52 143 -85 220 -7 17
-29 72 -49 122 -87 223 -109 279 -117 288 -5 5 -9 15 -9 22 0 7 -27 81 -60
164 -33 83 -60 158 -60 168 0 10 12 23 26 30 25 11 352 229 744 494 102 69
193 126 202 126 9 1 21 -5 25 -12z m-1275 -552 c45 -113 216 -535 258 -635 17
-41 40 -97 50 -125 24 -65 177 -435 182 -440 3 -3 300 3 1018 23 151 5 277 7
279 5 2 -2 -4 -29 -14 -62 l-19 -59 -96 -6 c-87 -6 -233 -11 -1020 -36 -146
-4 -268 -5 -272 -1 -4 3 -48 112 -98 241 -50 129 -116 296 -145 370 -63 158
-151 384 -190 490 -16 41 -32 79 -37 85 -4 5 -8 20 -8 35 -1 33 63 222 71 212
3 -4 22 -47 41 -97z m2237 -171 l48 -36 -29 -96 c-17 -54 -41 -133 -54 -177
-14 -44 -29 -93 -34 -110 -17 -60 -70 -237 -165 -550 -53 -176 -97 -327 -98
-337 -1 -21 -62 -25 -572 -38 -209 -6 -400 -12 -425 -15 -25 -2 -139 -5 -255
-6 l-209 -1 -32 76 c-36 85 -35 87 36 84 25 -1 184 4 355 10 171 6 460 17 642
24 l333 12 19 50 c10 28 101 297 201 599 100 301 184 547 186 547 3 0 26 -16
53 -36z"/>
</g>
</svg>
