<?xml version="1.0" encoding="utf-8"?>
<!-- Generator: Adobe Illustrator 25.0.1, SVG Export Plug-In . SVG Version: 6.00 Build 0)  -->
<svg version="1.1" xmlns="http://www.w3.org/2000/svg" xmlns:xlink="http://www.w3.org/1999/xlink" x="0px" y="0px"
	 viewBox="0 0 1200 1200" style="enable-background:new 0 0 1200 1200;" xml:space="preserve">
<style type="text/css">
	.st0{display:none;}
	.st1{display:inline;fill:none;stroke:#000000;stroke-miterlimit:10;}
	.st2{fill:none;stroke:#000000;stroke-width:4;stroke-miterlimit:10;}
</style>
<g id="Layer_1" class="st0">
	<polygon class="st1" points="600,100 124.47,445.49 306.11,1004.51 893.89,1004.51 1075.53,445.49 	"/>
	<circle class="st1" cx="600" cy="600" r="500"/>
	<polygon class="st1" points="600,195.61 225,468.06 368.24,908.9 831.76,908.9 975,468.06 	"/>
	<polygon class="st1" points="599.81,148.06 174.81,456.84 337.14,956.45 862.47,956.45 1024.81,456.84 	"/>
	<line class="st1" x1="174.81" y1="456.84" x2="161.96" y2="418.25"/>
	<line class="st1" x1="225" y1="468.06" x2="212.46" y2="429.48"/>
	<line class="st1" x1="321.69" y1="908.9" x2="368.24" y2="908.9"/>
	<line class="st1" x1="289.71" y1="956.45" x2="337.14" y2="956.45"/>
	<line class="st1" x1="831.76" y1="908.9" x2="816.31" y2="956.45"/>
	<line class="st1" x1="862.47" y1="956.45" x2="846.86" y2="1004.51"/>
	<line class="st1" x1="599.81" y1="148.06" x2="632.97" y2="123.96"/>
	<line class="st1" x1="600" y1="195.61" x2="632.63" y2="171.9"/>
	<line class="st1" x1="1024.81" y1="456.84" x2="1062.86" y2="484.48"/>
	<line class="st1" x1="975" y1="468.06" x2="1012.34" y2="495.19"/>
</g>
<g id="Layer_2">
	<g>
		<path class="st2" d="M616.18,111.76c-8.9-6.47-23.46-6.47-32.36,0L140.65,433.74c-8.9,6.47-13.4,20.32-10,30.78l169.27,520.97
			c3.4,10.46,15.18,19.02,26.18,19.02h547.79c11,0,22.78-8.56,26.18-19.02l169.27-520.97c3.4-10.46-1.1-24.31-10-30.78
			L616.18,111.76z"/>
	</g>
	<g>
		<path class="st2" d="M605.56,284.1c-2.22-1.62-5.87-1.62-8.09,0L313.96,490.08c-2.22,1.62-3.35,5.08-2.5,7.69l108.29,333.29
			c0.85,2.62,3.8,4.76,6.55,4.76h350.44c2.75,0,5.7-2.14,6.55-4.76l108.29-333.29c0.85-2.62-0.28-6.08-2.5-7.69L605.56,284.1z"/>
	</g>
	<g>
		<path class="st2" d="M599.83,193.25c0,0-299.22,217.39-313.34,227.65l23.43,72.12"/>
	</g>
	<path class="st2" d="M605.21,197.16"/>
	<line class="st2" x1="217.33" y1="471.15" x2="192.36" y2="396.17"/>
	<path class="st2" d="M335.81,835.82"/>
	<line class="st2" x1="278.91" y1="920.81" x2="369.81" y2="920.81"/>
	<line class="st2" x1="781.74" y1="835.82" x2="779.56" y2="842.52"/>
	<line class="st2" x1="836.22" y1="920.81" x2="809.03" y2="1004.51"/>
	<line class="st2" x1="599.83" y1="193.25" x2="664.09" y2="146.56"/>
	<path class="st2" d="M976.5,489.09"/>
	<g>
		<path class="st2" d="M601.52,281.16l55.61-40.4c2.22-1.62,5.87-1.62,8.09,0l313.06,227.45c2.22,1.62,5.87,4.26,8.09,5.88
			l64.61,46.94"/>
	</g>
	<g>
		<path class="st2" d="M217.33,471.15l144.56,444.9c0.85,2.62,3.8,4.76,6.55,4.76h380.69c2.75,0,5.35-1.08,5.78-2.41
			c0.43-1.33,1.48-4.55,2.33-7.17l22.32-68.71"/>
	</g>
	<g>
		<path class="st2" d="M954.91,537.92l-57.75-41.96c-2.22-1.62-2.22-1.62,0,0l32.6,23.68c2.22,1.62,5.87,4.26,8.09,5.88l21.69,15.76
			"/>
	</g>
	<g>
		<path class="st2" d="M836.22,920.81c0,0,107.5-330.84,123.32-379.53l-4.63-3.36"/>
	</g>
	<line class="st2" x1="959.54" y1="541.28" x2="885.05" y2="487.16"/>
	<line class="st2" x1="613.7" y1="272.31" x2="579.1" y2="297.45"/>
	<line class="st2" x1="306.42" y1="482.27" x2="314.29" y2="506.49"/>
	<line class="st2" x1="777.65" y1="848.41" x2="787.56" y2="817.91"/>
</g>
</svg>
